<?xml version="1.0" encoding="UTF-8"?>
<svg xmlns="http://www.w3.org/2000/svg" xmlns:xlink="http://www.w3.org/1999/xlink" width="150pt" height="74.999997pt" viewBox="0 0 150 74.999997" version="1.2">
<defs>
<clipPath id="clip1">
  <path d="M 143 46 L 147.753906 46 L 147.753906 51 L 143 51 Z M 143 46 "/>
</clipPath>
<clipPath id="clip2">
  <path d="M 105 67 L 115 67 L 115 71.363281 L 105 71.363281 Z M 105 67 "/>
</clipPath>
<clipPath id="clip3">
  <path d="M 90 68 L 100 68 L 100 71.363281 L 90 71.363281 Z M 90 68 "/>
</clipPath>
<clipPath id="clip4">
  <path d="M 62 2.363281 L 71 2.363281 L 71 8 L 62 8 Z M 62 2.363281 "/>
</clipPath>
<clipPath id="clip5">
  <path d="M 0.00390625 52 L 6 52 L 6 55 L 0.00390625 55 Z M 0.00390625 52 "/>
</clipPath>
</defs>
<g id="surface1">
<g clip-path="url(#clip1)" clip-rule="nonzero">
<path style=" stroke:none;fill-rule:nonzero;fill:rgb(32.939148%,32.939148%,32.939148%);fill-opacity:1;" d="M 143.324219 49.304688 C 143.128906 49.46875 143.023438 49.671875 143.003906 49.925781 C 142.984375 50.175781 143.054688 50.398438 143.222656 50.585938 C 143.390625 50.777344 143.601562 50.878906 143.851562 50.894531 C 144.105469 50.90625 144.324219 50.828125 144.511719 50.65625 C 145.273438 49.898438 146.207031 49.050781 147.140625 48.121094 C 147.320312 47.929688 147.402344 47.707031 147.394531 47.445312 C 147.414062 47.203125 147.359375 46.976562 147.230469 46.769531 C 147.050781 46.601562 146.839844 46.515625 146.59375 46.515625 C 146.347656 46.515625 146.136719 46.601562 145.957031 46.769531 C 145.019531 47.617188 144.171875 48.546875 143.324219 49.304688 Z M 143.324219 49.304688 "/>
</g>
<g clip-path="url(#clip2)" clip-rule="nonzero">
<path style=" stroke:none;fill-rule:nonzero;fill:rgb(32.939148%,32.939148%,32.939148%);fill-opacity:1;" d="M 106 69.25 C 105.578125 69.25 105.238281 69.839844 105.238281 70.261719 C 105.269531 70.511719 105.386719 70.707031 105.585938 70.855469 C 105.785156 71.007812 106.011719 71.0625 106.257812 71.023438 C 108.699219 70.75 111.105469 70.269531 113.464844 69.585938 C 113.667969 69.550781 113.835938 69.449219 113.964844 69.289062 C 114.09375 69.128906 114.152344 68.945312 114.144531 68.742188 L 114.144531 68.40625 C 114.054688 68.167969 113.894531 67.992188 113.664062 67.878906 C 113.4375 67.765625 113.203125 67.746094 112.957031 67.8125 C 110.679688 68.484375 108.359375 68.964844 106 69.25 Z M 106 69.25 "/>
</g>
<g clip-path="url(#clip3)" clip-rule="nonzero">
<path style=" stroke:none;fill-rule:nonzero;fill:rgb(32.939148%,32.939148%,32.939148%);fill-opacity:1;" d="M 98.875 69.503906 C 96.515625 69.421875 94.199219 69.082031 91.917969 68.488281 C 91.671875 68.425781 91.4375 68.460938 91.222656 68.59375 C 91.007812 68.726562 90.871094 68.917969 90.816406 69.164062 C 90.753906 69.410156 90.789062 69.640625 90.921875 69.855469 C 91.054688 70.074219 91.246094 70.207031 91.492188 70.261719 C 93.886719 70.890625 96.316406 71.257812 98.789062 71.363281 C 98.921875 71.371094 99.046875 71.351562 99.167969 71.308594 C 99.292969 71.265625 99.402344 71.199219 99.496094 71.113281 C 99.59375 71.023438 99.667969 70.921875 99.722656 70.804688 C 99.777344 70.6875 99.804688 70.5625 99.808594 70.433594 C 99.804688 70.175781 99.714844 69.957031 99.53125 69.777344 C 99.347656 69.597656 99.128906 69.503906 98.875 69.503906 Z M 98.875 69.503906 "/>
</g>
<path style=" stroke:none;fill-rule:nonzero;fill:rgb(32.939148%,32.939148%,32.939148%);fill-opacity:1;" d="M 85.304688 66.207031 C 83.128906 65.25 81.0625 64.09375 79.109375 62.742188 C 78.898438 62.617188 78.671875 62.578125 78.433594 62.632812 C 78.195312 62.6875 78.007812 62.816406 77.871094 63.019531 C 77.734375 63.222656 77.6875 63.445312 77.730469 63.6875 C 77.773438 63.925781 77.894531 64.121094 78.09375 64.261719 C 80.132812 65.671875 82.28125 66.882812 84.539062 67.898438 C 84.773438 67.992188 85.007812 67.992188 85.242188 67.890625 C 85.472656 67.792969 85.636719 67.625 85.726562 67.390625 C 85.796875 67.289062 85.824219 67.175781 85.8125 67.050781 C 85.820312 66.664062 85.648438 66.382812 85.304688 66.207031 Z M 85.304688 66.207031 "/>
<path style=" stroke:none;fill-rule:nonzero;fill:rgb(32.939148%,32.939148%,32.939148%);fill-opacity:1;" d="M 20.5 54.207031 C 20.414062 53.617188 20.074219 53.191406 19.734375 53.277344 L 18.125 53.277344 C 16.257812 53.277344 14.304688 53.277344 12.441406 53.195312 C 12.179688 53.167969 11.949219 53.238281 11.75 53.40625 C 11.550781 53.570312 11.4375 53.78125 11.414062 54.039062 C 11.390625 54.300781 11.464844 54.527344 11.632812 54.726562 C 11.800781 54.925781 12.015625 55.035156 12.273438 55.054688 C 14.140625 55.054688 16.09375 55.136719 17.957031 55.136719 L 19.566406 55.136719 C 19.824219 55.132812 20.042969 55.042969 20.222656 54.859375 C 20.402344 54.679688 20.496094 54.460938 20.5 54.207031 Z M 20.5 54.207031 "/>
<path style=" stroke:none;fill-rule:nonzero;fill:rgb(32.939148%,32.939148%,32.939148%);fill-opacity:1;" d="M 119.742188 65.445312 C 119.628906 65.488281 119.523438 65.550781 119.433594 65.632812 C 119.34375 65.714844 119.277344 65.8125 119.226562 65.925781 C 119.179688 66.039062 119.15625 66.15625 119.15625 66.277344 C 119.15625 66.402344 119.183594 66.519531 119.234375 66.628906 C 119.273438 66.746094 119.335938 66.847656 119.421875 66.9375 C 119.503906 67.027344 119.601562 67.09375 119.714844 67.144531 C 119.828125 67.191406 119.945312 67.214844 120.070312 67.214844 C 120.191406 67.214844 120.308594 67.1875 120.421875 67.136719 C 122.542969 66.121094 124.746094 65.023438 126.953125 63.839844 C 127.296875 63.703125 127.464844 63.449219 127.460938 63.082031 C 127.460938 62.914062 127.378906 62.828125 127.296875 62.574219 C 127.242188 62.46875 127.171875 62.378906 127.082031 62.304688 C 126.992188 62.230469 126.890625 62.175781 126.777344 62.144531 C 126.664062 62.113281 126.550781 62.105469 126.433594 62.121094 C 126.316406 62.136719 126.210938 62.175781 126.109375 62.234375 C 124.066406 63.457031 121.941406 64.527344 119.742188 65.445312 Z M 119.742188 65.445312 "/>
<path style=" stroke:none;fill-rule:nonzero;fill:rgb(32.939148%,32.939148%,32.939148%);fill-opacity:1;" d="M 58.414062 20.148438 C 58.796875 17.832031 59.417969 15.578125 60.28125 13.390625 C 60.351562 13.285156 60.378906 13.175781 60.363281 13.050781 C 60.332031 12.652344 60.136719 12.371094 59.769531 12.207031 C 59.535156 12.109375 59.300781 12.109375 59.070312 12.210938 C 58.835938 12.308594 58.675781 12.476562 58.582031 12.714844 C 57.613281 15.019531 56.960938 17.414062 56.632812 19.898438 C 56.597656 20.140625 56.65625 20.363281 56.804688 20.558594 C 56.953125 20.757812 57.152344 20.875 57.394531 20.910156 C 57.640625 20.945312 57.863281 20.886719 58.0625 20.738281 C 58.261719 20.589844 58.378906 20.394531 58.414062 20.148438 Z M 58.414062 20.148438 "/>
<path style=" stroke:none;fill-rule:nonzero;fill:rgb(32.939148%,32.939148%,32.939148%);fill-opacity:1;" d="M 59.433594 34.347656 C 59.433594 34.265625 59.347656 34.265625 59.433594 34.09375 C 58.898438 31.808594 58.53125 29.5 58.332031 27.164062 C 58.300781 26.914062 58.1875 26.710938 57.988281 26.550781 C 57.792969 26.390625 57.570312 26.324219 57.316406 26.347656 C 57.066406 26.367188 56.855469 26.476562 56.691406 26.664062 C 56.523438 26.855469 56.449219 27.078125 56.464844 27.328125 C 56.660156 29.785156 57.054688 32.207031 57.652344 34.597656 C 57.707031 34.84375 57.84375 35.035156 58.058594 35.167969 C 58.277344 35.300781 58.507812 35.335938 58.753906 35.273438 C 59.164062 35.097656 59.390625 34.789062 59.433594 34.347656 Z M 59.433594 34.347656 "/>
<path style=" stroke:none;fill-rule:nonzero;fill:rgb(32.939148%,32.939148%,32.939148%);fill-opacity:1;" d="M 33.902344 52.179688 C 31.609375 52.515625 29.234375 52.769531 26.777344 52.9375 C 26.523438 52.96875 26.320312 53.082031 26.160156 53.277344 C 26 53.472656 25.933594 53.699219 25.953125 53.949219 C 25.976562 54.199219 26.082031 54.410156 26.277344 54.574219 C 26.46875 54.738281 26.6875 54.8125 26.941406 54.796875 C 29.402344 54.628906 31.863281 54.375 34.152344 54.039062 C 34.371094 53.984375 34.550781 53.875 34.691406 53.703125 C 34.832031 53.527344 34.90625 53.332031 34.914062 53.109375 C 34.882812 52.851562 34.769531 52.636719 34.578125 52.460938 C 34.386719 52.285156 34.160156 52.191406 33.902344 52.179688 Z M 33.902344 52.179688 "/>
<g clip-path="url(#clip4)" clip-rule="nonzero">
<path style=" stroke:none;fill-rule:nonzero;fill:rgb(32.939148%,32.939148%,32.939148%);fill-opacity:1;" d="M 69.273438 2.402344 C 67.066406 2.65625 64.863281 4.09375 62.742188 6.457031 C 62.585938 6.644531 62.515625 6.859375 62.535156 7.101562 C 62.554688 7.347656 62.65625 7.546875 62.839844 7.707031 C 63.023438 7.871094 63.238281 7.941406 63.484375 7.929688 C 63.726562 7.917969 63.933594 7.820312 64.097656 7.640625 C 65.878906 5.613281 67.835938 4.429688 69.527344 4.175781 C 69.746094 4.125 69.925781 4.011719 70.066406 3.839844 C 70.207031 3.667969 70.28125 3.46875 70.289062 3.246094 L 70.289062 3.164062 C 70.257812 2.917969 70.140625 2.71875 69.941406 2.570312 C 69.742188 2.421875 69.519531 2.363281 69.273438 2.402344 Z M 69.273438 2.402344 "/>
</g>
<path style=" stroke:none;fill-rule:nonzero;fill:rgb(32.939148%,32.939148%,32.939148%);fill-opacity:1;" d="M 132.128906 58.433594 C 131.917969 58.574219 131.785156 58.765625 131.738281 59.015625 C 131.6875 59.261719 131.734375 59.488281 131.875 59.699219 C 132.015625 59.910156 132.207031 60.039062 132.457031 60.089844 C 132.707031 60.136719 132.933594 60.09375 133.144531 59.953125 C 135.171875 58.589844 137.125 57.125 139 55.558594 C 139.242188 55.363281 139.355469 55.109375 139.335938 54.796875 C 139.3125 54.578125 139.226562 54.378906 139.082031 54.207031 C 138.917969 54.027344 138.710938 53.925781 138.464844 53.910156 C 138.21875 53.894531 138 53.964844 137.8125 54.125 C 135.945312 55.644531 133.992188 57.078125 132.128906 58.433594 Z M 132.128906 58.433594 "/>
<path style=" stroke:none;fill-rule:nonzero;fill:rgb(32.939148%,32.939148%,32.939148%);fill-opacity:1;" d="M 66.21875 38.488281 C 66.023438 38.648438 65.917969 38.855469 65.898438 39.109375 C 65.878906 39.359375 65.949219 39.582031 66.117188 39.769531 C 66.285156 39.960938 66.496094 40.0625 66.746094 40.074219 C 67 40.089844 67.21875 40.011719 67.40625 39.839844 C 69.230469 38.140625 70.871094 36.28125 72.324219 34.261719 C 72.410156 34.074219 72.464844 33.875 72.492188 33.671875 C 72.492188 33.332031 72.324219 33.078125 72.152344 33.078125 C 72.058594 33 71.953125 32.941406 71.835938 32.90625 C 71.71875 32.871094 71.601562 32.863281 71.480469 32.878906 C 71.359375 32.894531 71.246094 32.933594 71.140625 32.996094 C 71.035156 33.0625 70.949219 33.144531 70.878906 33.246094 C 69.441406 35.09375 67.890625 36.84375 66.21875 38.488281 Z M 66.21875 38.488281 "/>
<path style=" stroke:none;fill-rule:nonzero;fill:rgb(32.939148%,32.939148%,32.939148%);fill-opacity:1;" d="M 74.617188 7.050781 C 75.839844 9.023438 76.546875 11.164062 76.738281 13.472656 C 76.769531 13.71875 76.886719 13.917969 77.085938 14.066406 C 77.285156 14.21875 77.507812 14.273438 77.753906 14.234375 C 77.980469 14.195312 78.164062 14.085938 78.308594 13.910156 C 78.457031 13.734375 78.523438 13.53125 78.519531 13.304688 C 78.519531 13.25 78.492188 13.222656 78.433594 13.222656 C 78.238281 10.648438 77.476562 8.253906 76.144531 6.039062 C 76.003906 5.828125 75.808594 5.699219 75.5625 5.648438 C 75.3125 5.601562 75.082031 5.644531 74.871094 5.785156 C 74.660156 5.925781 74.53125 6.117188 74.480469 6.367188 C 74.433594 6.613281 74.476562 6.84375 74.617188 7.054688 Z M 74.617188 7.050781 "/>
<path style=" stroke:none;fill-rule:nonzero;fill:rgb(32.939148%,32.939148%,32.939148%);fill-opacity:1;" d="M 76.398438 20.402344 C 76.03125 22.722656 75.351562 24.949219 74.363281 27.078125 C 74.285156 27.3125 74.296875 27.542969 74.394531 27.765625 C 74.492188 27.992188 74.648438 28.15625 74.871094 28.261719 C 75.105469 28.359375 75.339844 28.355469 75.570312 28.257812 C 75.804688 28.160156 75.96875 27.992188 76.058594 27.753906 C 77 25.457031 77.707031 23.09375 78.179688 20.65625 L 78.179688 20.492188 C 78.183594 20.273438 78.113281 20.082031 77.964844 19.917969 C 77.816406 19.757812 77.632812 19.664062 77.414062 19.644531 C 77.171875 19.617188 76.953125 19.675781 76.753906 19.820312 C 76.558594 19.96875 76.4375 20.164062 76.398438 20.402344 Z M 76.398438 20.402344 "/>
<path style=" stroke:none;fill-rule:nonzero;fill:rgb(32.939148%,32.939148%,32.939148%);fill-opacity:1;" d="M 49 49.8125 L 49 49.472656 C 48.964844 49.355469 48.902344 49.246094 48.824219 49.152344 C 48.742188 49.054688 48.644531 48.980469 48.53125 48.925781 C 48.421875 48.871094 48.300781 48.835938 48.175781 48.832031 C 48.050781 48.824219 47.929688 48.839844 47.8125 48.882812 C 45.691406 49.644531 43.316406 50.234375 40.941406 50.828125 C 40.695312 50.886719 40.503906 51.019531 40.371094 51.234375 C 40.242188 51.449219 40.203125 51.679688 40.261719 51.925781 C 40.320312 52.171875 40.457031 52.359375 40.671875 52.492188 C 40.890625 52.625 41.121094 52.660156 41.367188 52.601562 C 43.75 52.09375 46.097656 51.445312 48.40625 50.65625 C 48.582031 50.589844 48.726562 50.480469 48.832031 50.324219 C 48.941406 50.171875 48.996094 50 49 49.8125 Z M 49 49.8125 "/>
<path style=" stroke:none;fill-rule:nonzero;fill:rgb(32.939148%,32.939148%,32.939148%);fill-opacity:1;" d="M 67.320312 54.292969 C 68.859375 56.214844 70.527344 58.015625 72.324219 59.695312 C 72.523438 59.832031 72.738281 59.890625 72.976562 59.875 C 73.214844 59.859375 73.421875 59.773438 73.597656 59.613281 C 73.773438 59.457031 73.859375 59.257812 73.851562 59.023438 C 73.828125 58.722656 73.6875 58.496094 73.429688 58.347656 C 71.734375 56.699219 70.152344 54.953125 68.679688 53.105469 C 68.511719 52.925781 68.308594 52.832031 68.0625 52.816406 C 67.820312 52.804688 67.605469 52.878906 67.421875 53.039062 C 67.234375 53.199219 67.132812 53.402344 67.117188 53.644531 C 67.097656 53.886719 67.164062 54.101562 67.320312 54.289062 Z M 67.320312 54.292969 "/>
<path style=" stroke:none;fill-rule:nonzero;fill:rgb(32.939148%,32.939148%,32.939148%);fill-opacity:1;" d="M 59.855469 41.53125 C 60.113281 42.039062 60.28125 42.460938 60.449219 42.882812 C 58.527344 44.160156 56.519531 45.285156 54.429688 46.261719 C 54.316406 46.308594 54.214844 46.375 54.128906 46.460938 C 54.042969 46.550781 53.976562 46.652344 53.933594 46.765625 C 53.886719 46.878906 53.867188 46.996094 53.871094 47.117188 C 53.875 47.242188 53.90625 47.355469 53.957031 47.46875 C 54.011719 47.578125 54.082031 47.671875 54.175781 47.753906 C 54.269531 47.835938 54.371094 47.894531 54.488281 47.933594 C 54.605469 47.96875 54.726562 47.984375 54.847656 47.972656 C 54.96875 47.960938 55.085938 47.925781 55.191406 47.867188 C 57.3125 46.765625 59.34375 45.667969 61.214844 44.484375 C 61.753906 45.742188 62.375 46.953125 63.082031 48.121094 C 63.214844 48.339844 63.402344 48.476562 63.648438 48.542969 C 63.894531 48.609375 64.128906 48.582031 64.355469 48.460938 C 64.636719 48.285156 64.78125 48.03125 64.777344 47.699219 C 64.792969 47.523438 64.765625 47.355469 64.695312 47.191406 C 63.511719 45.148438 62.46875 43.035156 61.558594 40.855469 C 61.457031 40.628906 61.292969 40.464844 61.0625 40.367188 C 60.835938 40.269531 60.601562 40.261719 60.371094 40.347656 C 60.253906 40.386719 60.148438 40.449219 60.058594 40.53125 C 59.96875 40.617188 59.898438 40.714844 59.851562 40.828125 C 59.800781 40.9375 59.777344 41.058594 59.78125 41.179688 C 59.78125 41.300781 59.804688 41.417969 59.855469 41.53125 Z M 59.855469 41.53125 "/>
<g clip-path="url(#clip5)" clip-rule="nonzero">
<path style=" stroke:none;fill-rule:nonzero;fill:rgb(32.939148%,32.939148%,32.939148%);fill-opacity:1;" d="M 5.910156 53.53125 C 5.914062 53.3125 5.839844 53.121094 5.695312 52.957031 C 5.546875 52.796875 5.363281 52.703125 5.144531 52.6875 C 3.957031 52.601562 2.683594 52.433594 1.496094 52.347656 C 1.25 52.3125 1.03125 52.371094 0.832031 52.519531 C 0.632812 52.667969 0.515625 52.863281 0.480469 53.109375 C 0.445312 53.351562 0.503906 53.574219 0.652344 53.773438 C 0.800781 53.96875 0.996094 54.085938 1.242188 54.121094 C 2.429688 54.203125 3.703125 54.375 4.890625 54.460938 C 5.15625 54.460938 5.386719 54.375 5.582031 54.195312 C 5.78125 54.015625 5.886719 53.792969 5.910156 53.53125 Z M 5.910156 53.53125 "/>
</g>
</g>
</svg>
