<!-- Generated by IcoMoon.io -->
<svg version="1.1" xmlns="http://www.w3.org/2000/svg" width="50" height="50" viewBox="0 0 50 50">
<title>location</title>
<linearGradient id="myGradient" gradientTransform="rotate(90)">
      <stop offset="5%"  stop-color="#77b609" />
      <stop offset="95%" stop-color="#1c2b02" />
    </linearGradient>
<path d="M36.785 11.050c-6.508-6.402-17.060-6.402-23.569 0-6.508 6.404-6.508 16.785 0 23.187l11.783 11.594 11.785-11.594c6.508-6.402 6.508-16.783 0-23.188zM25 28.123c-1.392 0-2.698-0.542-3.683-1.525-2.031-2.031-2.031-5.335 0-7.367 0.983-0.983 2.292-1.525 3.683-1.525s2.7 0.542 3.683 1.525c2.031 2.031 2.031 5.338 0 7.367-0.983 0.983-2.292 1.525-3.683 1.525z" fill='url(#myGradient)'></path>
</svg>
