



<svg aria-hidden="true" style="position: absolute; width: 0; height: 0; overflow: hidden;" version="1.1" xmlns="http://www.w3.org/2000/svg" xmlns:xlink="http://www.w3.org/1999/xlink">
<defs>
<symbol id='construction'  viewBox="0 0 512 512" ><g><path d="m168 200h16v16h-16z"/><path d="m224 368h16v16h-16z"/><path d="m272 368h16v16h-16z"/><path d="m248 336h16v16h-16z"/><path d="m64 312h16v16h-16z"/><path d="m64 360h16v16h-16z"/><path d="m88 336h16v16h-16z"/><path d="m64 408h16v16h-16z"/><path d="m64 448h16v16h-16z"/><path d="m88 384h16v16h-16z"/><path d="m462.246 480-6.485-25.94a8 8 0 0 0 -7.761-6.06h-16v-136h-16v9.186l-32 34.448v-36.208l32-34.448v11.022h16v-160h40a8 8 0 0 0 7.155-4.422l16-32a8 8 0 0 0 -1.5-9.235l-53.655-53.657v-12.686a8 8 0 0 0 -8-8h-24a8 8 0 0 0 -7.311 4.751l-5.2 11.71-348.389 39.59a8 8 0 0 0 -7.1 7.949v8h-16a8 8 0 0 0 -7.155 11.578l16 32a8 8 0 0 0 7.155 4.422h40v-16h-35.056l-8-16h99.056v16h-40v16h72v32h-8a8 8 0 0 0 -7.311 4.751l-16 36a8 8 0 0 0 .365 7.218l16 28a8 8 0 0 0 6.946 4.031h8v12.687l-21.657 21.656a8 8 0 0 0 -1.932 8.187l8 24a8 8 0 0 0 7.589 5.47h32a8 8 0 0 0 8-8v-24h-16v16h-18.234l-4.613-13.839 20.5-20.5a8 8 0 0 0 2.347-5.661v-16h8a8 8 0 0 0 6.946-4.031l16-28a8 8 0 0 0 .365-7.218l-16-36a8 8 0 0 0 -7.311-4.751h-8v-32h99.056l29.789 59.578a8 8 0 0 0 7.155 4.422h48v248h-16a8 8 0 0 0 -7.761 6.06l-6.485 25.94h-17.754v-120a8 8 0 0 0 -1.685-4.911l-14.847-19.089h.532v-24h-16v4.113l-25.685-33.024a8 8 0 0 0 -12.336-.357l-56 64a8 8 0 0 0 -1.979 5.268v52.686l-26.343-26.343a8 8 0 0 0 -11.314 0l-18.343 18.343v-76.686a8 8 0 0 0 -3.088-6.314l-72-56a8 8 0 0 0 -4.912-1.686v-32h-16v32a8 8 0 0 0 -8 8v96h16v-88h5.255l66.745 51.913v88.773l-13.657 13.657a8 8 0 0 0 -2.343 5.657v48h-56v-104h-16v104h-16v16h480v-16zm-263.2-268.452-11.689 20.452h-22.714l-11.687-20.452 12.244-27.548h21.6zm216.954 133.146v40.492l-32 34.448v-40.492zm0-208.694v1.186l-32 34.448v-35.634zm-32 59.142 32-34.448v36.776l-32 34.448zm0 100.776v-40.492l32-34.448v40.492zm83.056-175.918h-251.056v-16h259.056zm1.63-32h-28.686v-28.686zm-55.486-56h10.8v56h-35.69zm-357.2 55.143 331.947-37.722-17.147 38.579h-314.8zm96 32.857v-16h48v16zm172.944 64-8-16h19.056v-16h-27.056l-8-16h67.056v48zm59.056 259.142 32-34.448v39.306h-32zm-152 4.858v32h-16v-48a8 8 0 0 0 -2.343-5.657l-5.657-5.657v-4.686h96v24h-64a8 8 0 0 0 -8 8zm23.637-147.437 48.363 62.182v37.255h-96v-44.994zm-87.637 179.437v-32h-16v32h-32v-44.687l40-40 40 40v44.687zm80 0v-24h56v24zm106.246 0 4-16h83.508l4 16z"/></g></symbol>
<symbol id="soil" viewBox="0 -29 511.99177 511"><title>soil</title><path d="m8.535156 452.789062c-1.65625 0-3.304687-.488281-4.730468-1.425781-2.378907-1.589843-3.804688-4.257812-3.804688-7.109375v-102.40625c0-3.667968 2.339844-6.929687 5.820312-8.089844 2.507813-.84375 8.15625-4.085937 12.6875-6.699218 5.847657-3.363282 11.359376-6.542969 15.378907-7.925782 4.480469-1.546874 9.054687-2.859374 13.636719-4.183593 6.8125-1.953125 13.246093-3.804688 19.289062-6.390625 5.023438-2.140625 9.496094-5.726563 14.222656-9.523438 5.121094-4.105468 10.414063-8.355468 17.050782-11.394531 11.230468-5.144531 23.484374-6.757813 35.425781-4.640625 7.074219 1.246094 14.320312 3.710938 21.519531 7.320312 7.007812 3.515626 12.71875 8.117188 18.230469 12.5625 2.054687 1.65625 4.113281 3.320313 6.238281 4.90625 6.785156 5.085938 14.171875 9.464844 21.949219 13.015626 12.304687 5.625 30.738281 11.496093 48.648437 7.613281 4.335938-.949219 8.585938-2.367188 13.082032-3.867188 6.09375-2.039062 12.390624-4.140625 19.363281-5.179687 12.863281-1.921875 24.355469-1.511719 34.160156 1.203125 9.191406 2.535156 16.199219 8.859375 19.742187 17.800781 1.714844 4.328125 2.566407 8.644531 3.378907 12.828125 3.488281-.242187 6.945312-.648437 10.410156-1.058594 3.140625-.367187 6.28125-.734375 9.429687-1 9.359376-.769531 18.738282-1.476562 28.117188-2.015625 21.898438-1.242187 43.078125-3.042968 61.503906-11.296875 11.246094-5.035156 30.226563-6.808593 44.742188-.425781 8.5 3.726562 14.378906 9.820312 16.984375 17.621094 3.53125 10.554687-2.773438 22.265625-14.046875 26.105468-10.402344 3.53125-20.789063 7.125-31.167969 10.71875l-43.46875 15.042969c-2.253906.777344-4.488281 1.648438-6.726563 2.527344-5.265624 2.046875-10.707031 4.164063-16.65625 5.351563-11.230468 2.226562-21.710937 2.03125-31.832031 1.84375-4.554687-.085938-9.164062-.179688-13.910156-.035157-13.816406.402344-27.382813 2.78125-40.328125 7.058594-4.207031 1.390625-8.375 2.984375-12.546875 4.574219-9.96875 3.796875-20.265625 7.730468-31.539063 9.28125-12.964843 1.785156-27.328124.839844-40 0l-4.878906-.3125c-10.300781-.640625-20.535156-2.765625-30.425781-4.816406-7.261719-1.507813-14.113281-2.933594-20.984375-3.8125-18.722656-2.398438-34.988281-2.789063-49.742188-1.167969-31.300781 3.421875-81.359374 14.351562-110.945312 26.726562-1.042969.460938-2.160156.675781-3.277344.675781zm8.53125-105.410156v84.457032c31.941406-11.347657 75.480469-20.308594 103.855469-23.40625 16.113281-1.757813 33.691406-1.367188 53.765625 1.210937 7.515625.964844 15.027344 2.515625 22.28125 4.027344 9.726562 2.023437 18.925781 3.925781 28.007812 4.488281l4.941407.324219c12.441406.820312 25.300781 1.664062 36.539062.121093 9.34375-1.289062 18.304688-4.703124 27.796875-8.320312 4.410156-1.683594 8.824219-3.363281 13.269532-4.832031 14.507812-4.792969 29.714843-7.464844 45.183593-7.910157 5.027344-.144531 9.910157-.058593 14.730469.027344 9.644531.179688 18.757812.355469 28.1875-1.519531 4.472656-.886719 9.003906-2.65625 13.789062-4.515625 2.449219-.953125 4.890626-1.902344 7.339844-2.746094l43.472656-15.039062c10.410157-3.609375 20.8125-7.210938 31.25-10.75 2.066407-.710938 3.949219-2.742188 3.351563-4.53125-1.066406-3.191406-3.574219-5.617188-7.652344-7.410156-9.378906-4.113282-23.347656-3.011719-30.910156.378906-21.070313 9.429687-43.957031 11.417968-67.5 12.765625-9.242187.527343-18.46875 1.21875-27.695313 1.980469-2.949218.238281-5.894531.585937-8.839843.9375-4.242188.496093-8.492188.988281-12.757813 1.230468-2.988281.363282-6.125.765625-9.140625-.582031-5.453125-2.414063-6.417969-6.253906-6.332031-9.082031-.273438-.835938-.554688-2.320313-.84375-3.820313-.707031-3.703125-1.382812-7.203125-2.558594-10.183593-1.078125-2.710938-3.414062-6.246094-8.414062-7.636719-7.503906-2.082031-16.625-2.335938-27.113282-.765625-5.488281.808594-10.8125 2.59375-16.453124 4.480468-4.726563 1.578126-9.617188 3.207032-14.867188 4.351563-22.503906 4.898437-44.707031-2.066406-59.367188-8.765625-8.894531-4.0625-17.332031-9.0625-25.089843-14.882812-2.289063-1.707032-4.496094-3.5-6.714844-5.28125-5.042969-4.0625-9.808594-7.902344-15.175781-10.601563-5.726563-2.867187-11.382813-4.8125-16.835938-5.765625-8.515625-1.503906-17.28125-.351562-25.355468 3.351562-4.707032 2.160157-8.96875 5.574219-13.472657 9.191407-5.417969 4.34375-11.027343 8.839843-18.203125 11.90625-7.015625 3.003906-14.269531 5.085937-21.273437 7.097656-4.300781 1.238281-8.59375 2.46875-12.800781 3.910156-2.46875.851563-7.988282 4.027344-12.417969 6.578125-3.53125 2.023438-6.9375 3.976563-9.976563 5.53125zm0 0"/><path d="m252.265625 390.859375c-15.855469 0-31.753906-.949219-47.445313-2.84375-19.9375-2.398437-45.621093-6.765625-67.453124-19.398437-4.078126-2.363282-5.46875-7.585938-3.113282-11.664063 2.355469-4.078125 7.585938-5.480469 11.65625-3.113281 19.140625 11.074218 42.625 15.027344 60.949219 17.226562 19.550781 2.355469 39.441406 3.203125 59.113281 2.46875l1.476563-.050781c16.640625-.597656 33.84375-1.214844 47.351562-9.023437 4.769531-2.753907 9.046875-6.203126 12.691407-10.230469 3.15625-3.5 8.558593-3.761719 12.050781-.597657 3.496093 3.160157 3.761719 8.558594.605469 12.050782-4.839844 5.351562-10.496094 9.914062-16.804688 13.558594-17.1875 9.941406-37.429688 10.667968-55.289062 11.300781l-1.46875.050781c-4.761719.179688-9.539063.265625-14.320313.265625zm0 0"/><path d="m238.945312 239.441406c-4.710937 0-8.535156-3.820312-8.535156-8.53125v-196.277344c0-4.710937 3.824219-8.535156 8.535156-8.535156 4.710938 0 8.535157 3.824219 8.535157 8.535156v196.277344c0 4.710938-3.824219 8.53125-8.535157 8.53125zm0 0"/><path d="m146.191406 172.136719c-26.660156 0-58.609375-7.988281-84.398437-38.078125-1.46875-1.917969-27.65625-37.554688-27.65625-99.425782 0-3.226562 1.824219-6.179687 4.707031-7.621093 2.886719-1.441407 6.351562-1.144531 8.9375.785156.316406.238281 32.519531 23.902344 71.691406 23.902344.851563 0 85.335938 1.171875 85.335938 102.40625 0 3.371093-1.988282 6.425781-5.066406 7.800781-.4375.195312-23.664063 10.230469-53.550782 10.230469zm-94.347656-121.777344c3.769531 46.1875 23.058594 72.75 23.269531 73.042969 39.289063 45.808594 95.246094 30.984375 112.527344 24.902344-2.9375-78.613282-65.445313-79.535157-68.167969-79.535157-28.390625 0-52.976562-10.429687-67.628906-18.410156zm0 0"/><path d="m196.269531 162.640625c-1.570312 0-3.152343-.429687-4.574219-1.332031l-93.871093-59.738282c-3.976563-2.523437-5.148438-7.808593-2.621094-11.785156 2.527344-3.964844 7.808594-5.152344 11.785156-2.617187l93.871094 59.734375c3.976563 2.527344 5.144531 7.808594 2.621094 11.785156-1.632813 2.550781-4.386719 3.953125-7.210938 3.953125zm0 0"/><path d="m343.59375 188.257812c-5.800781 0-11.664062-.402343-17.554688-1.230468-50.40625-7.011719-52.957031-28.65625-52.957031-32.921875 0-33.332031 9.1875-59.265625 27.316407-77.09375 24.710937-24.304688 56.78125-24.089844 58.164062-24.039063 47.847656 0 88.785156-25.304687 89.1875-25.558594 2.628906-1.648437 5.957031-1.742187 8.667969-.238281 2.714843 1.5 4.40625 4.351563 4.40625 7.457031v43.933594c-2.117188 21.613282-8.226563 40.335938-18.210938 56.484375-20.636719 33.410157-58.269531 53.207031-99.019531 53.207031zm-53.445312-34.65625c.871093 3.40625 9.171874 12.476563 38.246093 16.539063 40.554688 5.648437 79.691407-11.640625 99.703125-44.050781 8.601563-13.925782 13.882813-30.203125 15.699219-48.371094l-.023437-28.757812c-17.050782 8.355468-48.96875 21.070312-85.355469 21.070312-.296875.121094-26.710938-.015625-46.21875 19.304688-14.542969 14.410156-21.964844 36.035156-22.050781 64.265624zm0 .101563v.402344s.023437-.144531 0-.402344zm0 0"/><path d="m238.945312 179.707031c-1.058593 0-2.125-.195312-3.167968-.613281l-42.667969-17.070312c-4.375-1.757813-6.5-6.714844-4.753906-11.09375 1.75-4.367188 6.726562-6.484376 11.09375-4.75l42.671875 17.066406c4.375 1.757812 6.5 6.714844 4.753906 11.09375-1.339844 3.335937-4.550781 5.367187-7.929688 5.367187zm0 0"/><path d="m335.164062 368.6875c-1.621093 0-3.253906-.222656-4.839843-.9375-5.453125-2.417969-6.417969-6.257812-6.332031-9.082031-.273438-.835938-.554688-2.320313-.84375-3.824219-.707032-3.703125-1.382813-7.199219-2.5625-10.179688-1.074219-2.714843-3.410157-6.246093-8.414063-7.636718-7.5-2.082032-16.621094-2.339844-27.109375-.769532-5.488281.8125-10.8125 2.59375-16.453125 4.480469-4.726563 1.578125-9.617187 3.210938-14.867187 4.351563-22.496094 4.910156-44.707032-2.0625-59.367188-8.761719-8.894531-4.0625-17.332031-9.0625-25.089844-14.882813-2.289062-1.707031-4.5-3.5-6.71875-5.285156-5.042968-4.058594-9.804687-7.902344-15.171875-10.597656-4.214843-2.117188-8.890625-3.789062-13.917969-4.976562-2.722656-.648438-4.949218-2.574219-5.972656-5.167969-1.023437-2.605469-.710937-5.53125.835938-7.863281l1.101562-1.652344c.1875-.292969.398438-.566406.621094-.828125 2.195312-2.542969 54.386719-62.699219 108.882812-62.699219 3.277344 0 78.613282.699219 107.96875 59.957031 35.046876 2.84375 62.707032 32.277344 62.707032 68.050781v4.429688c0 4.453125-3.429688 8.164062-7.867188 8.507812-4.34375.339844-8.6875.621094-12.988281.871094-9.242187.527344-18.46875 1.21875-27.695313 1.976563-2.949218.242187-5.894531.589843-8.839843.941406-4.242188.492187-8.492188.988281-12.757813 1.226563-1.417968.171874-2.859375.351562-4.308594.351562zm-37.386718-50.496094c6.851562 0 13.183594.796875 18.9375 2.390625 9.1875 2.535157 16.195312 8.859375 19.738281 17.800781 1.714844 4.328126 2.566406 8.644532 3.378906 12.828126 3.488281-.238282 6.945313-.648438 10.410157-1.058594 3.140624-.367188 6.28125-.734375 9.429687-1 9.363281-.765625 18.742187-1.476563 28.121094-2.011719 1.542969-.085937 3.085937-.179687 4.640625-.28125-1.808594-26.59375-24.03125-47.679687-51.082032-47.679687-3.414062 0-6.496093-2.03125-7.84375-5.171876-23.03125-53.738281-93.863281-54.566406-94.570312-54.566406-35.816406 0-72.929688 33.179688-88.425781 48.804688 1.542969.648437 3.0625 1.351562 4.53125 2.085937 6.996093 3.515625 12.707031 8.105469 18.226562 12.558594 2.054688 1.65625 4.113281 3.320313 6.238281 4.90625 6.785157 5.089844 14.175782 9.464844 21.949219 13.015625 12.304688 5.625 30.738281 11.496094 48.652344 7.613281 4.332031-.949219 8.582031-2.363281 13.082031-3.867187 6.089844-2.039063 12.390625-4.136719 19.363282-5.179688 5.304687-.792968 10.390624-1.1875 15.222656-1.1875zm0 0"/><path d="m281.621094 162.640625c-3.222656 0-6.3125-1.835937-7.753906-4.960937-1.972657-4.273438-.105469-9.351563 4.171874-11.324219l110.9375-51.199219c4.269532-1.980469 9.355469-.105469 11.324219 4.171875 1.972657 4.273437.101563 9.351563-4.171875 11.324219l-110.9375 51.203125c-1.164062.535156-2.375.785156-3.570312.785156zm0 0"/><path d="m238.945312 205.308594c-2.183593 0-4.371093-.835938-6.035156-2.5-3.335937-3.335938-3.335937-8.730469 0-12.066406l42.671875-42.667969c3.328125-3.339844 8.738281-3.339844 12.066407 0 3.335937 3.335937 3.335937 8.726562 0 12.066406l-42.667969 42.667969c-1.664063 1.664062-3.851563 2.5-6.035157 2.5zm0 0"/><path d="m238.945312 43.167969c-2.183593 0-4.371093-.835938-6.035156-2.5l-25.597656-25.601563c-3.339844-3.339844-3.339844-8.730468 0-12.066406 3.328125-3.339844 8.738281-3.339844 12.066406 0l25.601563 25.601562c3.335937 3.335938 3.335937 8.726563 0 12.066407-1.664063 1.664062-3.851563 2.5-6.035157 2.5zm0 0"/><path d="m238.945312 43.167969c-2.183593 0-4.371093-.835938-6.035156-2.5-3.335937-3.339844-3.335937-8.730469 0-12.066407l25.601563-25.601562c3.328125-3.339844 8.738281-3.339844 12.066406 0 3.339844 3.335938 3.339844 8.726562 0 12.066406l-25.597656 25.601563c-1.664063 1.664062-3.851563 2.5-6.035157 2.5zm0 0"/></symbol><symbol id="drop" viewBox="0 0 294.465 294.465"><title>drop</title><g> <g> <path d="M174.432,32.465c-6.8-10-12.8-19.2-18.4-27.6c-0.8-1.2-2-2.4-3.2-3.2c-4.8-3.2-11.2-1.6-14.4,3.2 c-5.2,8.4-11.2,17.2-18.4,27.6c-31.6,46.4-78.8,116.4-78.8,156.4c0,29.2,12,55.6,31.2,74.8c19.2,18.8,45.6,30.8,74.8,30.8 s55.6-12,74.8-31.2c19.2-19.2,31.2-45.6,31.2-74.8C253.232,148.465,206.032,78.865,174.432,32.465z M207.632,248.865 c-15.6,15.6-36.8,24.8-60.4,24.8c-23.6,0-44.8-9.6-60.4-24.8c-15.6-15.6-24.8-36.8-24.8-60.4c0-33.6,45.2-100.4,75.2-144.8 c3.6-5.2,6.8-10.4,10-14.8c3.2,4.4,6.4,9.6,10,14.8c30,44.8,75.2,111.2,75.2,144.8 C232.432,212.065,222.832,233.265,207.632,248.865z"/> </g> </g><g> <g> <path d="M209.232,181.265c-5.6-0.4-10.4,4-10.8,9.6c-0.4,8.8-3.2,17.2-7.6,24.4c-4.4,7.2-10.8,13.6-18.4,17.6 c-4.8,2.8-6.8,9.2-4,14c3.2,5.6,9.6,7.2,14.4,4.4c10.8-6,19.6-14.8,25.6-24.8c6.4-10,10-22,10.4-34.4 C219.232,186.465,214.832,181.665,209.232,181.265z"/> </g> </g></symbol><symbol id="reduction" viewBox="0 0 512 512"><title>reduction</title><path d="m418.186 56.386h-100.963v-23.344c0-18.22-14.823-33.042-33.042-33.042h-56.361c-18.219 0-33.042 14.822-33.042 33.042v23.344h-33.595c-4.142 0-7.5 3.357-7.5 7.5s3.358 7.5 7.5 7.5h257.004c10.196 0 18.492 8.295 18.492 18.491s-8.295 18.491-18.492 18.491h-324.374c-10.196 0-18.492-8.295-18.492-18.491s8.295-18.491 18.492-18.491h34.683c4.142 0 7.5-3.357 7.5-7.5s-3.358-7.5-7.5-7.5h-34.683c-18.467 0-33.492 15.025-33.492 33.491s15.024 33.491 33.492 33.491h2.186l39.114 148.783h-5.767c-6.952 0-12.608 5.656-12.608 12.608v47.729c0 6.952 5.656 12.608 12.608 12.608h4.839l-17.091 55.102c-1.227 3.956.985 8.158 4.942 9.385.74.229 1.488.339 2.224.339 3.199 0 6.163-2.064 7.161-5.28l18.469-59.545h32.114l-15.16 103.479c-.6 4.099 2.235 7.907 6.334 8.508.369.054.734.08 1.096.08 3.661 0 6.865-2.685 7.412-6.414l15.478-105.652h51.336v104.565c0 4.143 3.358 7.5 7.5 7.5s7.5-3.357 7.5-7.5v-104.565h51.336l15.478 105.652c.546 3.73 3.75 6.414 7.412 6.414.362 0 .728-.026 1.096-.08 4.099-.601 6.934-4.409 6.334-8.508l-15.16-103.479h32.114l38.465 124.016c2.016 6.5.921 13.432-3.005 19.018-3.747 5.334-9.56 8.558-15.953 8.846-.336.016-.674.022-1.014.022h-249.206c-.34 0-.678-.007-1.019-.022-6.388-.288-12.201-3.512-15.948-8.846-3.926-5.587-5.021-12.518-3.005-19.018l10.313-33.249c1.227-3.956-.985-8.158-4.942-9.385-3.956-1.229-8.158.984-9.385 4.941l-10.312 33.25c-3.404 10.972-1.56 22.667 5.058 32.086 6.44 9.165 16.481 14.708 27.543 15.206.563.025 1.128.038 1.698.038h249.206c.569 0 1.135-.013 1.693-.038 11.066-.498 21.106-6.041 27.547-15.206 6.618-9.419 8.462-21.114 5.059-32.086l-37.087-119.572h4.839c6.952 0 12.608-5.656 12.608-12.608v-47.73c0-6.952-5.656-12.608-12.608-12.608h-5.767l15.136-57.576c1.053-4.007-1.34-8.107-5.347-9.161-4.005-1.05-8.107 1.342-9.16 5.347l-16.139 61.391h-30.925l14.703-100.358c.6-4.099-2.235-7.907-6.334-8.508-4.1-.591-7.907 2.235-8.508 6.334l-15.021 102.532h-51.793v-101.447c0-4.143-3.358-7.5-7.5-7.5s-7.5 3.357-7.5 7.5v101.445h-51.792l-15.021-102.532c-.6-4.1-4.414-6.926-8.508-6.334-4.099.6-6.934 4.409-6.334 8.508l14.702 100.358h-30.925l-39.114-148.783h288.983l-14.664 55.778c-1.053 4.007 1.34 8.107 5.347 9.161.639.168 1.28.248 1.912.248 3.325 0 6.364-2.229 7.249-5.595l15.666-59.593h2.186c18.467 0 33.492-15.024 33.492-33.491s-15.025-33.49-33.493-33.49zm-208.409-23.344c0-9.948 8.094-18.042 18.042-18.042h56.361c9.948 0 18.042 8.094 18.042 18.042v23.344h-92.445zm170.486 297.056h-248.526v-42.946h23.528v12.496c0 4.143 3.358 7.5 7.5 7.5s7.5-3.357 7.5-7.5v-12.496h47.156v12.496c0 4.143 3.358 7.5 7.5 7.5s7.5-3.357 7.5-7.5v-12.496h47.156v12.496c0 4.143 3.358 7.5 7.5 7.5s7.5-3.357 7.5-7.5v-12.496h47.156v12.496c0 4.143 3.358 7.5 7.5 7.5s7.5-3.357 7.5-7.5v-12.496h23.528v42.946z"/></symbol>
<symbol id="icon-triangle-down" viewBox="0 0 20 20">
<path d="M5 6h10l-5 9-5-9z"></path>
</symbol>
<symbol id="icon-weather-cloudy" viewBox="0 0 24 24">
<path d="M17 19h-11c-2.206 0-4-1.794-4-4 0-1.861 1.277-3.429 3.001-3.874-0.001-0.042-0.001-0.084-0.001-0.126 0-3.309 2.691-6 6-6 2.587 0 4.824 1.638 5.65 4.015 2.942-0.246 5.35 2.113 5.35 4.985 0 2.757-2.243 5-5 5zM5.905 12.994c-1.008 0.006-1.905 0.903-1.905 2.006s0.897 2 2 2h11c1.654 0 3-1.346 3-3s-1.346-3-3-3c-0.243 0-0.5 0.041-0.81 0.13l-1.075 0.307-0.186-1.103c-0.325-1.932-1.977-3.334-3.929-3.334-2.206 0-4 1.794-4 4 0 0.272 0.027 0.545 0.082 0.811l0.244 1.199-1.421-0.016z"></path>
<symbol id='icon-email' viewBox="0 0 20 20">
<path d="M1.574 5.286c0.488 0.262 7.248 3.894 7.5 4.029s0.578 0.199 0.906 0.199c0.328 0 0.654-0.064 0.906-0.199s7.012-3.767 7.5-4.029c0.489-0.263 0.951-1.286 0.054-1.286h-16.919c-0.897 0-0.435 1.023 0.053 1.286zM18.613 7.489c-0.555 0.289-7.387 3.849-7.727 4.027s-0.578 0.199-0.906 0.199-0.566-0.021-0.906-0.199-7.133-3.739-7.688-4.028c-0.39-0.204-0.386 0.035-0.386 0.219s0 7.293 0 7.293c0 0.42 0.566 1 1 1h16c0.434 0 1-0.58 1-1 0 0 0-7.108 0-7.292s0.004-0.423-0.387-0.219z"></path>
</symbol>


<symbol id='icon-phone' viewBox="0 0 32 32">
<path d="M22 20c-2 2-2 4-4 4s-4-2-6-4-4-4-4-6 2-2 4-4-4-8-6-8-6 6-6 6c0 4 4.109 12.109 8 16s12 8 16 8c0 0 6-4 6-6s-6-8-8-6z"></path>
</symbol>

<symbol id='icon-municipal' viewBox="0 0 409.79 409" ><path d="m406.703125 210.421875-78.394531-33.953125c-.644532-.277344-1.332032-.421875-2.035156-.421875h-29.636719v-54.230469h12.257812c2.832031 0 5.121094-2.292968 5.121094-5.121094v-31.554687c0-2.441406-1.726563-4.539063-4.121094-5.019531l-99.878906-19.929688v-18.230468h44.3125c2.832031 0 5.121094-2.292969 5.121094-5.121094v-27.667969c0-2.828125-2.289063-5.121094-5.121094-5.121094h-44.609375c-.636719-2.097656-2.511719-3.65625-4.824219-3.65625-2.828125 0-5.121093 2.292969-5.121093 5.121094v54.675781l-99.878907 19.929688c-2.394531.480468-4.121093 2.578125-4.121093 5.019531v31.554687c0 2.828126 2.292968 5.121094 5.121093 5.121094h12.261719v54.230469h-29.640625c-.699219 0-1.390625.144531-2.035156.421875l-78.394531 33.953125c-1.875.808594-3.085938 2.65625-3.085938 4.695313v31.371093c0 2.828125 2.289062 5.121094 5.121094 5.121094h8.527344v119.265625h-8.527344c-2.832032 0-5.121094 2.292969-5.121094 5.121094v28.875c0 2.828125 2.289062 5.117187 5.121094 5.117187h399.550781c2.828125 0 5.117187-2.289062 5.117187-5.117187v-28.875c0-2.828125-2.289062-5.121094-5.117187-5.121094h-6.875v-119.265625h6.875c2.828125 0 5.117187-2.292969 5.117187-5.121094v-31.371093c0-2.039063-1.210937-3.886719-3.085937-4.695313zm-157.492187-178.703125h-39.195313v-17.425781h39.195313zm-143.195313 57.625 98.878906-19.734375 98.878907 19.734375v22.230469h-197.757813zm17.378906 32.472656h163v54.230469h-163zm-99.503906 129.792969h71.882813v7.480469c0 2.828125 2.292968 5.121094 5.121093 5.121094h10.152344v106.664062h-87.15625zm216.804687 119.265625v-106.664062h49.464844v106.664062zm-69.945312-106.664062v106.664062h-49.464844v-106.664062zm10.238281 0h49.464844v106.664062h-49.464844zm-74.972656-10.242188v-22.230469l98.878906-19.734375 98.878907 19.734375v22.230469zm293.535156 145.78125h-389.3125v-18.636719h389.3125zm-11.996093-28.875h-87.15625v-106.664062h8.496093c2.832031 0 5.121094-2.292969 5.121094-5.121094v-7.480469h73.539063zm11.996093-129.503906h-85.535156v-13.832032c0-2.445312-1.726563-4.542968-4.121094-5.023437l-104-20.753906c-.660156-.132813-1.339843-.132813-2 0l-104 20.753906c-2.394531.480469-4.121093 2.578125-4.121093 5.023437v13.832032h-85.535157v-22.890625l74.335938-32.191407h240.640625l74.335937 32.191407zm0 0"/><path d="m148.328125 135.589844c-2.828125 0-5.117187 2.292968-5.117187 5.121094v16.445312c0 2.828125 2.289062 5.117188 5.117187 5.117188 2.832031 0 5.121094-2.289063 5.121094-5.117188v-16.445312c0-2.828126-2.289063-5.121094-5.121094-5.121094zm0 0"/><path d="m176.609375 135.589844c-2.828125 0-5.121094 2.292968-5.121094 5.121094v16.445312c0 2.828125 2.292969 5.117188 5.121094 5.117188 2.832031 0 5.121094-2.289063 5.121094-5.117188v-16.445312c0-2.828126-2.289063-5.121094-5.121094-5.121094zm0 0"/><path d="m204.894531 135.589844c-2.828125 0-5.121093 2.292968-5.121093 5.121094v16.445312c0 2.828125 2.292968 5.117188 5.121093 5.117188 2.832031 0 5.121094-2.289063 5.121094-5.117188v-16.445312c0-2.828126-2.289063-5.121094-5.121094-5.121094zm0 0"/><path d="m233.179688 135.589844c-2.828126 0-5.121094 2.292968-5.121094 5.121094v16.445312c0 2.828125 2.292968 5.117188 5.121094 5.117188 2.832031 0 5.121093-2.289063 5.121093-5.117188v-16.445312c0-2.828126-2.289062-5.121094-5.121093-5.121094zm0 0"/><path d="m261.460938 135.589844c-2.832032 0-5.121094 2.292968-5.121094 5.121094v16.445312c0 2.828125 2.289062 5.117188 5.121094 5.117188 2.828124 0 5.117187-2.289063 5.117187-5.117188v-16.445312c0-2.828126-2.289063-5.121094-5.117187-5.121094zm0 0"/><path d="m78.910156 264.316406h-27.445312c-2.828125 0-5.121094 2.292969-5.121094 5.121094v27.449219c0 2.824219 2.292969 5.117187 5.121094 5.117187h27.445312c2.828125 0 5.121094-2.292968 5.121094-5.117187v-27.449219c0-2.828125-2.292969-5.121094-5.121094-5.121094zm-5.121094 27.449219h-17.203124v-17.207031h17.203124zm0 0"/><path d="m78.910156 317.597656h-27.445312c-2.828125 0-5.121094 2.292969-5.121094 5.121094v27.445312c0 2.824219 2.292969 5.117188 5.121094 5.117188h27.445312c2.828125 0 5.121094-2.292969 5.121094-5.117188v-27.445312c0-2.828125-2.292969-5.121094-5.121094-5.121094zm-5.121094 27.445313h-17.203124v-17.207031h17.203124zm0 0"/><path d="m330.253906 302.003906h27.445313c2.832031 0 5.121093-2.292968 5.121093-5.117187v-27.449219c0-2.828125-2.289062-5.121094-5.121093-5.121094h-27.445313c-2.828125 0-5.117187 2.292969-5.117187 5.121094v27.449219c0 2.824219 2.289062 5.117187 5.117187 5.117187zm5.121094-27.445312h17.203125v17.207031h-17.203125zm0 0"/><path d="m330.253906 355.28125h27.445313c2.832031 0 5.121093-2.292969 5.121093-5.117188v-27.445312c0-2.828125-2.289062-5.121094-5.121093-5.121094h-27.445313c-2.828125 0-5.117187 2.292969-5.117187 5.121094v27.445312c0 2.824219 2.289062 5.117188 5.117187 5.117188zm5.121094-27.445312h17.203125v17.207031h-17.203125zm0 0"/></symbol>
<symbol id="icon-construction" viewBox="0 0 64 64"><g><path d="m19 58c0-1.654-1.346-3-3-3s-3 1.346-3 3 1.346 3 3 3 3-1.346 3-3zm-3 1c-.552 0-1-.449-1-1s.448-1 1-1 1 .449 1 1-.448 1-1 1z"/><path d="m29 58c0-1.654-1.346-3-3-3s-3 1.346-3 3 1.346 3 3 3 3-1.346 3-3zm-3 1c-.552 0-1-.449-1-1s.448-1 1-1 1 .449 1 1-.448 1-1 1z"/><path d="m41 19h8v-6h-8zm2-4h4v2h-4z"/><path d="m52.816 21h10.184v-10h-2.66l-13-10h-4.508l-29 10h-4.301l-4.957 5.95c-.37.442-.574 1.004-.574 1.582 0 1.361 1.107 2.468 2.469 2.468h4.531v6h-10v10h10c0 1.103.897 2 2 2h2c1.103 0 2-.897 2-2h10v-10h-10v-6h20.184c.302.847.969 1.514 1.816 1.816v14.018l-7.401 4.983c-1.278-1.706-3.309-2.817-5.599-2.817h-6c-2.757 0-5 2.243-5 5v1h-9c-2.757 0-5 2.243-5 5v5h9.026c-.635.838-1.026 1.87-1.026 3 0 2.757 2.243 5 5 5h13 1 23.566.434 4c3.859 0 7-3.14 7-7v-6-1-.451l-12-10.589v-15.144c.847-.302 1.514-.969 1.816-1.816zm-7.816 12c-1.641 0-3.088.806-4 2.031v-12.031h8v12.031c-.912-1.225-2.359-2.031-4-2.031zm-18 20h-6v-8h5c.552 0 1 .449 1 1zm6 2v-4.679l6-4.057v12.736c0 .696.148 1.375.421 2h-7.446c.634-.838 1.025-1.87 1.025-3s-.391-2.162-1.026-3zm8 4c0-1.654 1.346-3 3-3 .614 0 1.208.189 1.717.547l.974.685.507-1.077c.334-.713 1.025-1.155 1.802-1.155.927 0 1.71.631 1.931 1.504l-1.565 2.609c-.239.399-.366.855-.366 1.321 0 .195.026.384.068.566h-7.28c-.496-.549-.788-1.254-.788-2zm11.129-4.492c-.311-.391-.695-.716-1.129-.966v-6.342l3.698 3.026zm-3.129-1.508c-1.177 0-2.283.53-3.033 1.406-.618-.267-1.284-.406-1.967-.406-1.13 0-2.162.391-3 1.026v-10.114l2.984-2.017c.328.068.668.105 1.016.105.264 0 .518-.038.771-.078l3.229 2.642zm-4-12c-1.654 0-3-1.346-3-3s1.346-3 3-3 3 1.346 3 3-1.346 3-3 3zm6-21c0 .551-.448 1-1 1h-10c-.552 0-1-.449-1-1v-8c0-.551.448-1 1-1h10c.552 0 1 .449 1 1zm-7.307-17h2.614l2.25 6h-7.114zm17.307 16h-8v-6h8zm-8.184-8c-.333-.935-1.112-1.654-2.085-1.899l-1.565-4.173 7.894 6.072zm-11.498-7.362-2.048 5.462c-.973.246-1.751.964-2.085 1.899h-17.217zm-18.318 10.029 4 5.333h-8zm-6 4.666-4-5.333h8zm8-5.333h8l-4 5.333zm10.5 0h1.5v6h-6zm-29.5 5.532c0-.109.038-.215.109-.3l4.36-5.232h.031l4.5 6h-8.531c-.259 0-.469-.21-.469-.468zm5 10.468v2h-8v-2zm-8 6v-2h8v2zm14 0v-2h8v2zm8-6v2h-8v-2zm-10 8h-2v-16h2zm25.054 1.535c.147 1.358.83 2.544 1.844 3.355l-8.898 6.016v-1.906c0-.851-.16-1.664-.44-2.42zm-37.054 11.465c0-1.654 1.346-3 3-3h11v-3c0-1.654 1.346-3 3-3h6c2.757 0 5 2.243 5 5v7h-2v-7c0-1.654-1.346-3-3-3h-5c-1.103 0-2 .897-2 2v8h-5-11zm24 11h-1-10-2c-1.654 0-3-1.346-3-3s1.346-3 3-3h2 10 2c1.654 0 3 1.346 3 3s-1.346 3-3 3zm34-5c0 2.757-2.243 5-5 5h-4-.434c-.312 0-.566-.254-.566-.566 0-.102.028-.203.081-.291l5.485-9.143h4.434zm-4.643-7-8.471-6.931c.871-.62 1.521-1.514 1.854-2.553l10.749 9.484z"/><path d="m5 49h2v2h-2z"/><path d="m9 49h2v2h-2z"/><path d="m13 49h2v2h-2z"/></g></symbol>

</symbol>
<symbol 
	 viewBox="0 0 512.213 512.213" id='icon-utilities'>
<g transform="translate(0 1)">
	<g>
		<g>
			<path d="M489.067,187.8L292.8,13.72c-20.48-19.627-52.907-19.627-73.387,0l-65.707,59.733v-23.04h8.533
				c5.12,0,8.533-3.413,8.533-8.533V7.747c0-5.12-3.413-8.533-8.533-8.533H59.84c-5.12,0-8.533,3.413-8.533,8.533V41.88
				c0,5.12,3.413,8.533,8.533,8.533h8.533v98.133L23.147,187.8c-5.973,5.973-7.68,13.653-5.12,21.333
				c2.56,6.827,10.24,11.947,17.92,11.947h32.427v238.933H59.84c-5.12,0-8.533,3.413-8.533,8.533v34.133
				c0,5.12,3.413,8.533,8.533,8.533h392.533c4.267,0,8.533-3.413,8.533-9.387v-34.133c0-2.56-0.853-4.267-2.56-5.973
				c-1.707-1.707-3.413-2.56-5.973-2.56h-8.533V220.227h32.427c8.533,0,15.36-4.267,17.92-11.947
				C496.747,201.453,495.04,192.92,489.067,187.8z M477.973,203.16c-0.853,0.853-1.707,0.853-1.707,0.853h-40.96
				c-5.12,0-8.533,3.413-8.533,8.533v256c0,5.12,3.413,8.533,8.533,8.533h8.533v17.067H68.373V477.08h8.533
				c5.12,0,8.533-3.413,8.533-8.533v-256c0-5.12-3.413-8.533-8.533-8.533h-40.96c-0.853,0-1.707,0-1.707-0.853s0-1.707,0.853-2.56
				l47.787-40.96c1.707-1.707,2.56-4.267,2.56-6.827V41.88c0-5.12-3.413-8.533-8.533-8.533h-8.533V16.28h85.333v17.067h-8.533
				c-5.12,0-8.533,3.413-8.533,8.533v51.2c0,3.413,1.707,6.827,5.12,9.387c3.413,0.853,6.827,0.853,9.387-1.707l80.213-73.387
				c13.653-13.653,34.987-13.653,49.493,0l196.267,174.08C477.973,201.453,478.827,202.307,477.973,203.16z"/>
			<path d="M375.573,340.547h-70.588c-2.963-5.087-8.466-8.533-14.746-8.533h-8.533v-22.094
				c24.955-10.182,42.667-34.736,42.667-63.239c0-37.547-30.72-68.267-68.267-68.267s-68.267,30.72-68.267,68.267
				c0,28.504,17.712,53.058,42.667,63.239v22.094h-8.533c-6.28,0-11.782,3.447-14.746,8.533H136.64
				c-9.387,0-17.067,7.68-17.067,17.067v51.2c0,9.387,7.68,17.067,17.067,17.067h70.588c2.963,5.086,8.466,8.533,14.746,8.533
				h68.267c6.28,0,11.782-3.447,14.746-8.533h70.588c9.387,0,17.067-7.68,17.067-17.067v-51.2
				C392.64,348.227,384.96,340.547,375.573,340.547z M247.573,329.453v-14.507c5.973,0.853,11.093,0.853,17.067,0v14.507H247.573z
				 M205.637,255.213h7.803c5.12,0,8.533-3.413,8.533-8.533s-3.413-8.533-8.533-8.533h-7.803
				c3.623-21.355,20.581-38.313,41.937-41.937v7.803c0,5.12,3.413,8.533,8.533,8.533c5.12,0,8.533-3.413,8.533-8.533v-7.803
				c21.355,3.623,38.313,20.581,41.937,41.937h-7.803c-5.12,0-8.533,3.413-8.533,8.533s3.413,8.533,8.533,8.533h7.803
				c-3.139,18.504-16.289,33.705-33.639,39.794c-0.775-0.031-1.55,0.055-2.325,0.313c-9.387,2.56-19.627,2.56-29.013,0
				c-0.455,0-0.911,0.004-1.366,0.013C222.411,289.475,208.834,274.057,205.637,255.213z M136.64,357.613h68.267v51.2H136.64
				V357.613z M221.973,417.347V349.08h68.267v68.267H221.973z M375.573,408.813h-68.267v-51.2h68.267V408.813z"/>
			<path d="M256.107,255.213c2.56,0,4.267-0.853,5.973-2.56l17.067-17.067c3.413-3.413,3.413-8.533,0-11.947s-8.533-3.413-11.947,0
				l-17.067,17.067c-3.413,3.413-3.413,8.533,0,11.947C251.84,254.36,253.547,255.213,256.107,255.213z"/>
		</g>
	</g>
</g>
<g>
</g>
<g>
</g>
<g>
</g>
<g>
</g>
<g>
</g>
<g>
</g>
<g>
</g>
<g>
</g>
<g>
</g>
<g>
</g>
<g>
</g>
<g>
</g>
<g>
</g>
<g>
</g>
<g>
</g>
</symbol>

<symbol id="icon-weather-sunny" viewBox="0 0 24 24">
<path d="M13 4l-1 2.934-1-2.934c-0.188-0.553 0.106-1.152 0.659-1.341 0.552-0.188 1.153 0.107 1.341 0.659 0.078 0.23 0.072 0.469 0 0.682z"></path>
<path d="M4 11l2.934 1-2.934 1c-0.553 0.188-1.152-0.106-1.341-0.659-0.188-0.552 0.107-1.153 0.659-1.341 0.23-0.078 0.469-0.072 0.682 0z"></path>
<path d="M11 20l1-2.934 1 2.934c0.188 0.553-0.106 1.152-0.659 1.341-0.552 0.188-1.152-0.106-1.341-0.659-0.078-0.23-0.072-0.469 0-0.682z"></path>
<path d="M20 12.998l-2.934-1 2.934-1c0.553-0.188 1.152 0.106 1.341 0.659 0.188 0.552-0.106 1.152-0.659 1.341-0.23 0.078-0.469 0.072-0.682 0z"></path>
<path d="M7.050 5.636l1.367 2.781-2.781-1.367c-0.524-0.257-0.74-0.891-0.483-1.414 0.258-0.523 0.891-0.739 1.414-0.482 0.218 0.107 0.383 0.28 0.483 0.482z"></path>
<path d="M5.636 16.949l2.781-1.367-1.367 2.781c-0.257 0.523-0.891 0.739-1.414 0.482s-0.739-0.891-0.482-1.414c0.107-0.218 0.28-0.382 0.482-0.482z"></path>
<path d="M16.949 18.363l-1.367-2.781 2.781 1.367c0.523 0.257 0.739 0.891 0.482 1.414s-0.891 0.739-1.414 0.482c-0.218-0.107-0.382-0.28-0.482-0.482z"></path>
<path d="M18.362 7.048l-2.782 1.368 1.368-2.782c0.257-0.523 0.891-0.739 1.414-0.482s0.739 0.891 0.481 1.415c-0.106 0.217-0.279 0.381-0.481 0.481z"></path>
<path d="M12 16.5c-2.481 0-4.5-2.019-4.5-4.5s2.019-4.5 4.5-4.5 4.5 2.019 4.5 4.5-2.019 4.5-4.5 4.5zM12 9.5c-1.379 0-2.5 1.121-2.5 2.5s1.121 2.5 2.5 2.5 2.5-1.121 2.5-2.5-1.121-2.5-2.5-2.5z"></path>
</symbol>
<symbol id="icon-tree" viewBox="0 0 20 20">
<path d="M20 10c0-1.361-0.758-2.616-2.031-3.622-0.002-0.001-0.004-0.001-0.005-0.003-0.362-3.572-3.787-6.375-7.964-6.375s-7.602 2.803-7.964 6.375c-0.001 0.002-0.003 0.002-0.005 0.003-1.273 1.006-2.031 2.261-2.031 3.622 0 3.112 3.947 5.669 9 5.97 0 0.338 0 0.683 0 1.030 0 1-1.821 1.911-1.821 1.911-0.099 0.049-0.148 0.173-0.109 0.277 0 0 0.305 0.812 0.93 0.812s1.124-0.5 2.374-0.5 2.439 0.432 2.439 0.432c0.102 0.038 0.251 0.005 0.329-0.073l0.717-0.717c0.078-0.078 0.058-0.173-0.046-0.212 0 0-1.812-0.68-1.812-1.93 0-0.312 0-0.706 0-1.121 4.564-0.555 7.999-2.976 7.999-5.879zM2 10c0-1.019 0.768-1.945 2.022-2.651-0.010-0.116-0.022-0.232-0.022-0.349 0-2.762 2.687-5 6-5s6 2.238 6 5c0 0.117-0.012 0.233-0.021 0.349 1.253 0.706 2.021 1.632 2.021 2.651 0 1.864-2.551 3.424-5.999 3.869 0-0.401 0-0.668 0-0.668 0-0.11 0.065-0.262 0.145-0.337l1.833-1.726c0.080-0.076 0.146-0.227 0.146-0.337v-0.851c0-0.11-0.078-0.155-0.172-0.099l-1.779 1.047c-0.096 0.056-0.173 0.012-0.173-0.099v-3.599c0-0.11-0.085-0.172-0.19-0.137l-2.621 0.874c-0.104 0.035-0.189 0.153-0.189 0.263v2.6c0 0.11-0.079 0.158-0.177 0.107l-2.022-1.064c-0.097-0.051-0.24-0.030-0.318 0.048l-0.342 0.342c-0.078 0.078-0.073 0.201 0.009 0.273l2.7 2.361c0.083 0.073 0.15 0.222 0.15 0.332 0 0 0 0.298 0 0.765-3.945-0.245-7.001-1.924-7.001-3.964z"></path>
</symbol>
<symbol id="icon-fire" viewBox="0 0 32 32">
<path d="M10.031 32c-2.133-4.438-0.997-6.981 0.642-9.376 1.795-2.624 2.258-5.221 2.258-5.221s1.411 1.834 0.847 4.703c2.493-2.775 2.963-7.196 2.587-8.889 5.635 3.938 8.043 12.464 4.798 18.783 17.262-9.767 4.294-24.38 2.036-26.027 0.753 1.646 0.895 4.433-0.625 5.785-2.573-9.759-8.937-11.759-8.937-11.759 0.753 5.033-2.728 10.536-6.084 14.648-0.118-2.007-0.243-3.392-1.298-5.312-0.237 3.646-3.023 6.617-3.777 10.27-1.022 4.946 0.765 8.568 7.555 12.394z"></path>
</symbol>
<symbol id="icon-lab" viewBox="0 0 32 32">
<path d="M29.884 25.14l-9.884-16.47v-6.671h1c0.55 0 1-0.45 1-1s-0.45-1-1-1h-10c-0.55 0-1 0.45-1 1s0.45 1 1 1h1v6.671l-9.884 16.47c-2.264 3.773-0.516 6.86 3.884 6.86h20c4.4 0 6.148-3.087 3.884-6.86zM7.532 20l6.468-10.779v-7.221h4v7.221l6.468 10.779h-16.935z"></path>
</symbol>
<symbol id='icon-pin' viewBox='0 0 24 24'>
<path d="M17.657 5.304c-3.124-3.073-8.189-3.073-11.313 0s-3.124 8.057 0 11.13l5.656 5.565 5.657-5.565c3.124-3.073 3.124-8.056 0-11.13zM12 13.499c-0.668 0-1.295-0.26-1.768-0.732-0.975-0.975-0.975-2.561 0-3.536 0.472-0.472 1.1-0.732 1.768-0.732s1.296 0.26 1.768 0.732c0.975 0.975 0.975 2.562 0 3.536-0.472 0.472-1.1 0.732-1.768 0.732z"></path>
</symbol>
</defs>
</svg>
